<svg width="126" height="24" viewBox="0 0 126 24" fill="none" xmlns="http://www.w3.org/2000/svg">
<path d="M0 15.5281C0 9.49092 4.68286 4.97266 11.2319 4.97266C15.3457 4.97266 18.4532 6.79472 19.8203 9.9304L14.4078 12.5256C13.7052 10.8077 12.4701 10.0972 10.8981 10.0972C8.32455 10.0972 6.45681 12.155 6.45681 15.1592C6.45681 17.2812 7.69031 18.7007 9.99836 18.7007C11.6356 18.7007 12.9391 18.0222 13.9055 16.3028L18.5518 19.1369C16.8144 22.101 13.5399 23.8541 9.56123 23.8541C3.77839 23.8541 0 20.5516 0 15.5281Z" fill="#F6F6F6"/>
<path d="M34.5151 13.6066C34.5151 11.483 32.854 10.0972 30.6827 10.0972C28.1759 10.0972 26.3734 12.1566 26.3734 15.225C26.3734 17.3486 27.6403 18.6991 29.8148 18.6991C32.3533 18.6991 34.5151 16.6428 34.5151 13.6066ZM41.5251 5.2758L37.9152 23.5542C37.9152 23.5542 36.1524 22.996 33.9238 22.996C32.0004 22.996 30.7558 23.8557 27.6069 23.8557C23.6965 23.8557 19.9531 20.858 19.9531 15.5281C19.9531 9.45884 24.3658 4.97266 29.7782 4.97266C32.2214 4.97266 35.0444 6.02002 37.1999 6.02002C40.1644 6.02002 41.5251 5.2758 41.5251 5.2758Z" fill="#F6F6F6"/>
<path d="M100.047 13.6066C100.047 11.483 98.386 10.0972 96.2147 10.0972C93.7127 10.0972 91.9054 12.1566 91.9054 15.225C91.9054 17.3486 93.1722 18.6991 95.3436 18.6991C97.8885 18.6991 100.047 16.6428 100.047 13.6066ZM107.059 5.2758L103.45 23.5542C103.45 23.5542 101.683 22.996 99.4558 22.996C97.534 22.996 96.2878 23.8557 93.142 23.8557C89.2301 23.8557 85.4883 20.858 85.4883 15.5281C85.4883 9.45884 89.8993 4.97266 95.3118 4.97266C97.7534 4.97266 100.581 6.02002 102.735 6.02002C105.696 6.02002 107.059 5.2758 107.059 5.2758Z" fill="#F6F6F6"/>
<path d="M107.352 22.0689L109.658 17.5843C111.329 18.6638 113.805 19.2717 115.942 19.2717C118.01 19.2717 118.846 18.7648 118.846 17.9581C118.846 15.8633 109.456 17.788 109.456 11.6145C109.456 7.23099 113.635 4.97266 119.116 4.97266C121.688 4.97266 124.226 5.51158 126 6.421L123.757 10.9072C121.988 9.82775 119.984 9.5246 118.378 9.5246C116.31 9.5246 115.469 10.163 115.469 10.9072C115.469 13.0998 124.83 11.143 124.83 17.2475C124.83 21.6343 120.585 23.8541 115.206 23.8541C111.998 23.8541 108.92 23.081 107.352 22.0689Z" fill="#F6F6F6"/>
<path d="M57.5186 4.97266C53.3952 4.97266 50.2797 6.71131 46.1786 5.27419L42.5703 23.5526L48.9286 23.5526L50.7327 14.5176C51.3002 11.7156 52.8055 10.402 54.9769 10.402C56.6825 10.402 57.4852 11.2456 57.4852 12.8287C57.4852 13.2008 57.455 13.605 57.3533 14.0445L55.4792 23.5526L61.8295 23.5526L63.8371 13.4382C63.9992 12.6266 64.0676 11.8872 64.0676 11.1766C64.0676 7.09786 61.3939 4.97266 57.5186 4.97266Z" fill="#F6F6F6"/>
<path d="M82.3149 0.140625C83.3911 0.637843 83.0604 1.54567 82.8506 1.90655L74.0269 16.4718L72.1814 7.09846C71.9923 6.11526 71.3231 5.2764 69.9306 5.2764C68.4046 5.2764 64.4609 5.27801 64.4609 5.27801C64.4609 5.27801 65.7119 6.08799 66.0171 7.55879C66.1904 8.36878 69.3806 23.5532 69.3806 23.5532L75.9678 23.5532L90.1928 0.140625L82.3149 0.140625Z" fill="#F6F6F6"/>
<path d="M79.2411 3.216C79.0646 2.29374 78.4415 1.50781 77.1365 1.50781L72.0117 1.50781C72.0117 1.50781 73.18 2.26807 73.4693 3.64585C73.552 4.02117 74.3325 7.74709 75.1002 11.3912L79.4397 4.22006L79.2411 3.216Z" fill="#F6F6F6"/>
</svg>
