<svg width="260" height="56" viewBox="0 0 260 56" fill="none" xmlns="http://www.w3.org/2000/svg">
<path d="M60.2305 25.8989C60.2305 16.3274 67.655 9.16406 78.0384 9.16406C84.5607 9.16406 89.4877 12.0528 91.6551 17.0242L83.0738 21.1386C81.9598 18.4152 80.0016 17.2887 77.5091 17.2887C73.4289 17.2887 70.4676 20.5512 70.4676 25.3141C70.4676 28.6783 72.4233 30.9288 76.0827 30.9288C78.6785 30.9288 80.7451 29.8532 82.2774 27.1272L89.644 31.6205C86.8894 36.3198 81.6977 39.0992 75.3896 39.0992C66.221 39.0992 60.2305 33.8633 60.2305 25.8989Z" fill="white"/>
<path d="M114.959 22.8525C114.959 19.4857 112.325 17.2887 108.883 17.2887C104.908 17.2887 102.05 20.5537 102.05 25.4183C102.05 28.7851 104.059 30.9263 107.507 30.9263C111.531 30.9263 114.959 27.6663 114.959 22.8525ZM126.073 9.64467L120.35 38.6236C120.35 38.6236 117.555 37.7387 114.021 37.7387C110.972 37.7387 108.999 39.1017 104.006 39.1017C97.8062 39.1017 91.8711 34.349 91.8711 25.8989C91.8711 16.2766 98.8672 9.16406 107.449 9.16406C111.322 9.16406 115.798 10.8246 119.215 10.8246C123.916 10.8246 126.073 9.64467 126.073 9.64467Z" fill="white"/>
<path d="M218.852 22.8525C218.852 19.4857 216.219 17.2887 212.776 17.2887C208.809 17.2887 205.944 20.5537 205.944 25.4183C205.944 28.7851 207.952 30.9263 211.395 30.9263C215.43 30.9263 218.852 27.6663 218.852 22.8525ZM229.969 9.64467L224.248 38.6236C224.248 38.6236 221.446 37.7387 217.915 37.7387C214.868 37.7387 212.892 39.1017 207.904 39.1017C201.702 39.1017 195.77 34.349 195.77 25.8989C195.77 16.2766 202.763 9.16406 211.345 9.16406C215.216 9.16406 219.699 10.8246 223.114 10.8246C227.809 10.8246 229.969 9.64467 229.969 9.64467Z" fill="white"/>
<path d="M230.434 36.2689L234.09 29.1589C236.739 30.8703 240.666 31.8341 244.053 31.8341C247.332 31.8341 248.657 31.0305 248.657 29.7514C248.657 26.4304 233.77 29.4819 233.77 19.6942C233.77 12.7445 240.396 9.16406 249.086 9.16406C253.163 9.16406 257.188 10.0185 260.001 11.4603L256.445 18.5728C253.64 16.8614 250.462 16.3808 247.916 16.3808C244.638 16.3808 243.304 17.3929 243.304 18.5728C243.304 22.049 258.146 18.9466 258.146 28.6249C258.146 35.5798 251.414 39.0992 242.886 39.0992C237.8 39.0992 232.921 37.8735 230.434 36.2689Z" fill="white"/>
<path d="M151.431 9.16406C144.893 9.16406 139.954 11.9206 133.451 9.64213L127.73 38.6211H137.811L140.672 24.2969C141.572 19.8544 143.958 17.7718 147.401 17.7718C150.105 17.7718 151.378 19.1094 151.378 21.6192C151.378 22.2092 151.33 22.85 151.169 23.5467L148.197 38.6211L158.265 38.6211L161.449 22.5855C161.706 21.2988 161.814 20.1265 161.814 19C161.814 12.5334 157.575 9.16406 151.431 9.16406Z" fill="white"/>
<path d="M190.733 1.5C192.439 2.2883 191.915 3.72759 191.582 4.29974L177.592 27.3919L174.666 12.5311C174.367 10.9723 173.306 9.64239 171.098 9.64239C168.678 9.64239 162.426 9.64493 162.426 9.64493C162.426 9.64493 164.409 10.9291 164.893 13.2609C165.168 14.5451 170.226 38.6188 170.226 38.6188L180.67 38.6188L203.223 1.5L190.733 1.5Z" fill="white"/>
<path d="M185.868 6.38007C185.588 4.9179 184.601 3.67188 182.531 3.67188L174.406 3.67188C174.406 3.67188 176.259 4.87721 176.717 7.06157C176.848 7.65661 178.086 13.5638 179.303 19.3413L186.183 7.97193L185.868 6.38007Z" fill="white"/>
<path d="M22.3873 31.1209V26.6016L14.9258 26.6016L14.9258 38.653L37.3172 38.653V31.1209L22.3873 31.1209Z" fill="white"/>
<path d="M25.3867 0.992188L25.3867 8.52434L44.7956 8.52434L44.7956 31.1225L40.3184 31.1225L40.3184 38.6547L52.2623 38.6564L52.2623 0.992188L25.3867 0.992188Z" fill="white"/>
<path d="M0 16.0547L0 53.7172L37.3248 53.7172L37.3248 41.6344H29.8633L29.8633 46.185L7.46496 46.185L7.46496 23.5868L29.8633 23.5868V28.2071L37.3248 28.2071L37.3248 16.0547L0 16.0547Z" fill="white"/>
<path d="M14.933 1.00781L22.3945 1.00781L22.3945 13.061L14.933 13.061L14.933 1.00781Z" fill="white"/>
<path d="M173.354 50.3521V53.2107C173.246 53.3485 173.076 53.4981 172.845 53.6594C172.616 53.8207 172.317 53.9602 171.947 54.0779C171.577 54.1921 171.124 54.2493 170.586 54.2493C170.119 54.2493 169.692 54.172 169.305 54.0174C168.919 53.8594 168.586 53.6292 168.307 53.3267C168.028 53.0242 167.813 52.6545 167.662 52.2175C167.511 51.7806 167.435 51.2815 167.435 50.7202V50.2362C167.435 49.6749 167.506 49.1758 167.647 48.7388C167.791 48.3019 167.996 47.9322 168.262 47.6297C168.531 47.3272 168.852 47.097 169.225 46.939C169.601 46.781 170.021 46.7021 170.485 46.7021C171.107 46.7021 171.618 46.8046 172.018 47.0096C172.421 47.2146 172.73 47.4969 172.945 47.8566C173.161 48.2128 173.295 48.6229 173.349 49.0867H171.998C171.961 48.8313 171.887 48.6078 171.776 48.4162C171.665 48.2212 171.507 48.07 171.302 47.9624C171.1 47.8515 170.838 47.7961 170.515 47.7961C170.243 47.7961 170.003 47.8499 169.794 47.9574C169.586 48.065 169.411 48.2212 169.27 48.4263C169.129 48.6313 169.021 48.8851 168.947 49.1875C168.877 49.49 168.842 49.8362 168.842 50.2261V50.7202C168.842 51.1134 168.882 51.463 168.963 51.7688C169.043 52.0713 169.159 52.3268 169.31 52.5351C169.465 52.7402 169.655 52.8965 169.88 53.004C170.109 53.1082 170.367 53.1603 170.657 53.1603C170.919 53.1603 171.135 53.1384 171.307 53.0948C171.482 53.0477 171.621 52.9922 171.725 52.9284C171.83 52.8645 171.91 52.8023 171.967 52.7418V51.3655H170.51V50.3521H173.354ZM179.323 53.0595V54.1484H175.633V53.0595H179.323ZM176.051 46.8079V54.1484H174.665V46.8079H176.051ZM185.862 50.2916V50.6698C185.862 51.2243 185.788 51.7234 185.64 52.1671C185.492 52.6074 185.282 52.9822 185.01 53.2914C184.738 53.6006 184.413 53.8375 184.037 54.0022C183.66 54.1669 183.242 54.2493 182.781 54.2493C182.328 54.2493 181.911 54.1669 181.531 54.0022C181.155 53.8375 180.829 53.6006 180.553 53.2914C180.278 52.9822 180.064 52.6074 179.913 52.1671C179.762 51.7234 179.686 51.2243 179.686 50.6698V50.2916C179.686 49.7337 179.762 49.2346 179.913 48.7943C180.064 48.354 180.276 47.9793 180.548 47.67C180.82 47.3575 181.145 47.1188 181.521 46.9541C181.901 46.7894 182.318 46.7071 182.771 46.7071C183.232 46.7071 183.65 46.7894 184.027 46.9541C184.403 47.1188 184.728 47.3575 185 47.67C185.275 47.9793 185.487 48.354 185.635 48.7943C185.786 49.2346 185.862 49.7337 185.862 50.2916ZM184.46 50.6698V50.2816C184.46 49.8816 184.423 49.5304 184.349 49.2279C184.275 48.922 184.166 48.6649 184.022 48.4565C183.877 48.2481 183.699 48.0918 183.487 47.9877C183.276 47.8801 183.037 47.8263 182.771 47.8263C182.503 47.8263 182.264 47.8801 182.055 47.9877C181.85 48.0918 181.676 48.2481 181.531 48.4565C181.387 48.6649 181.276 48.922 181.198 49.2279C181.124 49.5304 181.088 49.8816 181.088 50.2816V50.6698C181.088 51.0664 181.124 51.4176 181.198 51.7234C181.276 52.0293 181.387 52.2881 181.531 52.4998C181.679 52.7082 181.857 52.8662 182.066 52.9738C182.274 53.0813 182.513 53.1351 182.781 53.1351C183.05 53.1351 183.289 53.0813 183.497 52.9738C183.706 52.8662 183.881 52.7082 184.022 52.4998C184.166 52.2881 184.275 52.0293 184.349 51.7234C184.423 51.4176 184.46 51.0664 184.46 50.6698ZM189.85 50.8765H187.974L187.964 49.8984H189.572C189.848 49.8984 190.078 49.8598 190.263 49.7824C190.448 49.7051 190.587 49.5926 190.682 49.4447C190.779 49.2968 190.828 49.117 190.828 48.9052C190.828 48.6699 190.782 48.4784 190.692 48.3305C190.604 48.1826 190.466 48.075 190.278 48.0078C190.09 47.9372 189.851 47.9019 189.562 47.9019H188.423V54.1484H187.037V46.8079H189.562C189.979 46.8079 190.351 46.8483 190.677 46.9289C191.006 47.0062 191.285 47.1272 191.513 47.2919C191.742 47.4566 191.915 47.6633 192.033 47.912C192.154 48.1607 192.214 48.4565 192.214 48.7993C192.214 49.1018 192.144 49.3808 192.002 49.6362C191.865 49.8883 191.651 50.0933 191.362 50.2513C191.077 50.4093 190.714 50.5 190.273 50.5236L189.85 50.8765ZM189.789 54.1484H187.566L188.146 53.0595H189.789C190.065 53.0595 190.292 53.0141 190.47 52.9233C190.651 52.8326 190.786 52.7082 190.873 52.5503C190.964 52.3889 191.009 52.2041 191.009 51.9957C191.009 51.7671 190.969 51.5688 190.888 51.4008C190.811 51.2327 190.687 51.1033 190.515 51.0126C190.347 50.9218 190.125 50.8765 189.85 50.8765H188.408L188.418 49.8984H190.253L190.571 50.2765C190.994 50.2799 191.339 50.3639 191.604 50.5286C191.873 50.6933 192.071 50.905 192.199 51.1638C192.327 51.4226 192.391 51.7016 192.391 52.0007C192.391 52.4713 192.288 52.8662 192.083 53.1855C191.881 53.5048 191.586 53.7451 191.196 53.9064C190.809 54.0678 190.34 54.1484 189.789 54.1484ZM196.51 47.9221L194.417 54.1484H192.95L195.693 46.8079H196.631L196.51 47.9221ZM198.259 54.1484L196.157 47.9221L196.031 46.8079H196.973L199.731 54.1484H198.259ZM198.163 51.421V52.515H194.226V51.421H198.163ZM205.146 53.0595V54.1484H201.455V53.0595H205.146ZM201.874 46.8079V54.1484H200.487V46.8079H201.874ZM213.303 53.0595V54.1484H209.613V53.0595H213.303ZM210.031 46.8079V54.1484H208.645V46.8079H210.031ZM219.842 50.2916V50.6698C219.842 51.2243 219.768 51.7234 219.62 52.1671C219.472 52.6074 219.262 52.9822 218.99 53.2914C218.718 53.6006 218.393 53.8375 218.017 54.0022C217.64 54.1669 217.222 54.2493 216.762 54.2493C216.308 54.2493 215.891 54.1669 215.511 54.0022C215.135 53.8375 214.809 53.6006 214.533 53.2914C214.258 52.9822 214.044 52.6074 213.893 52.1671C213.742 51.7234 213.666 51.2243 213.666 50.6698V50.2916C213.666 49.7337 213.742 49.2346 213.893 48.7943C214.044 48.354 214.256 47.9793 214.528 47.67C214.8 47.3575 215.125 47.1188 215.501 46.9541C215.881 46.7894 216.298 46.7071 216.751 46.7071C217.212 46.7071 217.63 46.7894 218.007 46.9541C218.383 47.1188 218.708 47.3575 218.98 47.67C219.255 47.9793 219.467 48.354 219.615 48.7943C219.766 49.2346 219.842 49.7337 219.842 50.2916ZM218.44 50.6698V50.2816C218.44 49.8816 218.403 49.5304 218.329 49.2279C218.256 48.922 218.146 48.6649 218.002 48.4565C217.857 48.2481 217.679 48.0918 217.467 47.9877C217.256 47.8801 217.017 47.8263 216.751 47.8263C216.483 47.8263 216.244 47.8801 216.036 47.9877C215.831 48.0918 215.656 48.2481 215.511 48.4565C215.367 48.6649 215.256 48.922 215.179 49.2279C215.105 49.5304 215.068 49.8816 215.068 50.2816V50.6698C215.068 51.0664 215.105 51.4176 215.179 51.7234C215.256 52.0293 215.367 52.2881 215.511 52.4998C215.659 52.7082 215.837 52.8662 216.046 52.9738C216.254 53.0813 216.493 53.1351 216.762 53.1351C217.03 53.1351 217.269 53.0813 217.477 52.9738C217.686 52.8662 217.861 52.7082 218.002 52.4998C218.146 52.2881 218.256 52.0293 218.329 51.7234C218.403 51.4176 218.44 51.0664 218.44 50.6698ZM226.744 50.3521V53.2107C226.636 53.3485 226.467 53.4981 226.235 53.6594C226.006 53.8207 225.707 53.9602 225.337 54.0779C224.968 54.1921 224.514 54.2493 223.976 54.2493C223.509 54.2493 223.082 54.172 222.695 54.0174C222.309 53.8594 221.976 53.6292 221.697 53.3267C221.418 53.0242 221.203 52.6545 221.052 52.2175C220.901 51.7806 220.825 51.2815 220.825 50.7202V50.2362C220.825 49.6749 220.896 49.1758 221.037 48.7388C221.181 48.3019 221.386 47.9322 221.652 47.6297C221.921 47.3272 222.242 47.097 222.615 46.939C222.991 46.781 223.411 46.7021 223.875 46.7021C224.497 46.7021 225.008 46.8046 225.408 47.0096C225.811 47.2146 226.12 47.4969 226.335 47.8566C226.551 48.2128 226.685 48.6229 226.739 49.0867H225.388C225.351 48.8313 225.277 48.6078 225.166 48.4162C225.055 48.2212 224.897 48.07 224.692 47.9624C224.49 47.8515 224.228 47.7961 223.905 47.7961C223.633 47.7961 223.393 47.8499 223.185 47.9574C222.976 48.065 222.801 48.2212 222.66 48.4263C222.519 48.6313 222.411 48.8851 222.338 49.1875C222.267 49.49 222.232 49.8362 222.232 50.2261V50.7202C222.232 51.1134 222.272 51.463 222.353 51.7688C222.433 52.0713 222.549 52.3268 222.701 52.5351C222.855 52.7402 223.045 52.8965 223.27 53.004C223.499 53.1082 223.758 53.1603 224.047 53.1603C224.309 53.1603 224.526 53.1384 224.697 53.0948C224.872 53.0477 225.011 52.9922 225.115 52.9284C225.22 52.8645 225.3 52.8023 225.357 52.7418V51.3655H223.9V50.3521H226.744ZM229.532 46.8079V54.1484H228.145V46.8079H229.532ZM234.871 52.2427C234.871 52.1016 234.849 51.9755 234.805 51.8646C234.765 51.7503 234.689 51.6478 234.578 51.5571C234.471 51.463 234.318 51.3722 234.12 51.2848C233.925 51.1941 233.673 51.1 233.363 51.0025C233.021 50.895 232.701 50.774 232.406 50.6395C232.11 50.5051 231.849 50.3488 231.624 50.1706C231.402 49.9925 231.229 49.7875 231.105 49.5556C230.98 49.3203 230.918 49.0481 230.918 48.7388C230.918 48.4364 230.982 48.1607 231.11 47.912C231.241 47.6633 231.426 47.4499 231.664 47.2718C231.903 47.0903 232.184 46.9508 232.506 46.8533C232.832 46.7558 233.192 46.7071 233.585 46.7071C234.13 46.7071 234.6 46.8062 234.997 47.0046C235.397 47.2029 235.706 47.4717 235.925 47.8112C236.143 48.1507 236.252 48.5321 236.252 48.9556H234.871C234.871 48.7271 234.822 48.5254 234.725 48.3506C234.631 48.1759 234.486 48.0381 234.291 47.9372C234.099 47.8364 233.857 47.786 233.565 47.786C233.283 47.786 233.047 47.828 232.859 47.912C232.674 47.9961 232.535 48.1103 232.441 48.2549C232.35 48.3994 232.305 48.5607 232.305 48.7388C232.305 48.8733 232.337 48.9943 232.4 49.1018C232.464 49.206 232.56 49.3052 232.688 49.3993C232.816 49.49 232.974 49.5757 233.162 49.6564C233.353 49.7337 233.575 49.811 233.827 49.8883C234.231 50.0093 234.583 50.1438 234.886 50.2916C235.192 50.4395 235.446 50.6076 235.647 50.7958C235.852 50.984 236.005 51.1958 236.106 51.431C236.21 51.6663 236.262 51.9335 236.262 52.2326C236.262 52.5486 236.2 52.8309 236.076 53.0796C235.951 53.3283 235.773 53.5401 235.541 53.7149C235.309 53.8896 235.03 54.0224 234.704 54.1131C234.382 54.2039 234.021 54.2493 233.621 54.2493C233.264 54.2493 232.911 54.2022 232.562 54.1081C232.216 54.0106 231.901 53.8661 231.619 53.6745C231.337 53.4796 231.112 53.2342 230.943 52.9385C230.775 52.6393 230.691 52.2898 230.691 51.8898H232.083C232.083 52.1217 232.12 52.32 232.194 52.4847C232.271 52.6461 232.379 52.7788 232.516 52.883C232.658 52.9838 232.822 53.0578 233.011 53.1048C233.199 53.1519 233.402 53.1754 233.621 53.1754C233.903 53.1754 234.135 53.1368 234.316 53.0595C234.501 52.9788 234.639 52.8679 234.73 52.7267C234.824 52.5856 234.871 52.4242 234.871 52.2427ZM240.482 46.8079V54.1484H239.101V46.8079H240.482ZM242.761 46.8079V47.9019H236.847V46.8079H242.761ZM245.161 46.8079V54.1484H243.774V46.8079L245.161 46.8079ZM250.953 51.7335H252.34C252.303 52.2242 252.167 52.6595 251.931 53.0393C251.696 53.4157 251.369 53.7115 250.948 53.9266C250.528 54.1417 250.019 54.2493 249.421 54.2493C248.96 54.2493 248.545 54.1686 248.176 54.0073C247.809 53.8426 247.495 53.609 247.233 53.3065C246.974 53.0006 246.776 52.6343 246.638 52.2074C246.5 51.7772 246.431 51.2949 246.431 50.7605V50.2009C246.431 49.6665 246.502 49.1842 246.643 48.754C246.784 48.3238 246.986 47.9574 247.248 47.6549C247.513 47.3491 247.831 47.1138 248.201 46.9491C248.574 46.7844 248.991 46.7021 249.451 46.7021C250.049 46.7021 250.555 46.813 250.969 47.0348C251.382 47.2533 251.703 47.5541 251.931 47.9372C252.16 48.3204 252.298 48.7607 252.345 49.2581H250.958C250.932 48.9489 250.864 48.6868 250.757 48.4716C250.653 48.2565 250.495 48.0935 250.283 47.9826C250.075 47.8683 249.797 47.8112 249.451 47.8112C249.182 47.8112 248.945 47.8616 248.74 47.9624C248.539 48.0633 248.37 48.2145 248.236 48.4162C248.102 48.6145 248.001 48.8632 247.934 49.1623C247.866 49.4581 247.833 49.8009 247.833 50.1908V50.7605C247.833 51.1336 247.863 51.468 247.923 51.7638C247.984 52.0596 248.078 52.3099 248.206 52.515C248.333 52.72 248.498 52.8763 248.7 52.9838C248.902 53.0914 249.142 53.1452 249.421 53.1452C249.76 53.1452 250.036 53.0914 250.248 52.9838C250.463 52.8763 250.626 52.7183 250.737 52.5099C250.851 52.3015 250.923 52.0427 250.953 51.7335ZM257.255 52.2427C257.255 52.1016 257.234 51.9755 257.19 51.8646C257.149 51.7503 257.074 51.6478 256.963 51.5571C256.855 51.463 256.702 51.3722 256.504 51.2848C256.309 51.1941 256.057 51.1 255.748 51.0025C255.405 50.895 255.086 50.774 254.79 50.6395C254.494 50.5051 254.234 50.3488 254.009 50.1706C253.787 49.9925 253.614 49.7875 253.489 49.5556C253.365 49.3203 253.303 49.0481 253.303 48.7388C253.303 48.4364 253.367 48.1607 253.494 47.912C253.625 47.6633 253.81 47.4499 254.049 47.2718C254.288 47.0903 254.568 46.9508 254.891 46.8533C255.217 46.7558 255.577 46.7071 255.97 46.7071C256.514 46.7071 256.985 46.8062 257.381 47.0046C257.781 47.2029 258.091 47.4717 258.309 47.8112C258.528 48.1507 258.637 48.5321 258.637 48.9556H257.255C257.255 48.7271 257.207 48.5254 257.109 48.3506C257.015 48.1759 256.871 48.0381 256.676 47.9372C256.484 47.8364 256.242 47.786 255.95 47.786C255.667 47.786 255.432 47.828 255.244 47.912C255.059 47.9961 254.919 48.1103 254.825 48.2549C254.735 48.3994 254.689 48.5607 254.689 48.7388C254.689 48.8733 254.721 48.9943 254.785 49.1018C254.849 49.206 254.945 49.3052 255.072 49.3993C255.2 49.49 255.358 49.5757 255.546 49.6564C255.738 49.7337 255.96 49.811 256.212 49.8883C256.615 50.0093 256.968 50.1438 257.27 50.2916C257.576 50.4395 257.83 50.6076 258.032 50.7958C258.237 50.984 258.39 51.1958 258.491 51.431C258.595 51.6663 258.647 51.9335 258.647 52.2326C258.647 52.5486 258.585 52.8309 258.46 53.0796C258.336 53.3283 258.158 53.5401 257.926 53.7149C257.694 53.8896 257.415 54.0224 257.089 54.1131C256.766 54.2039 256.405 54.2493 256.005 54.2493C255.649 54.2493 255.296 54.2022 254.946 54.1081C254.6 54.0106 254.286 53.8661 254.004 53.6745C253.721 53.4796 253.496 53.2342 253.328 52.9385C253.16 52.6393 253.076 52.2898 253.076 51.8898H254.467C254.467 52.1217 254.504 52.32 254.578 52.4847C254.656 52.6461 254.763 52.7788 254.901 52.883C255.042 52.9838 255.207 53.0578 255.395 53.1048C255.583 53.1519 255.787 53.1754 256.005 53.1754C256.287 53.1754 256.519 53.1368 256.701 53.0595C256.886 52.9788 257.023 52.8679 257.114 52.7267C257.208 52.5856 257.255 52.4242 257.255 52.2427Z" fill="white"/>
</svg>
