<?xml version="1.0" standalone="no"?>
<!DOCTYPE svg PUBLIC "-//W3C//DTD SVG 20010904//EN"
 "http://www.w3.org/TR/2001/REC-SVG-20010904/DTD/svg10.dtd">
<svg version="1.0" xmlns="http://www.w3.org/2000/svg"
 width="88.000000pt" height="88.000000pt" viewBox="0 0 88.000000 88.000000"
 preserveAspectRatio="xMidYMid meet">
<metadata>
Created by potrace 1.14, written by Peter Selinger 2001-2017
</metadata>
<g transform="translate(0.000000,88.000000) scale(0.100000,-0.100000)"
fill="#000000" stroke="none">
<path d="M209 797 c-1 -1 -3 -39 -4 -85 l-2 -83 51 3 50 3 1 80 0 80 -47 2
c-27 1 -49 1 -49 0z"/>
<path d="M349 786 c-2 -13 -2 -67 0 -81 1 -7 48 -11 129 -10 l127 0 3 -149 c3
-155 0 -168 -40 -161 -16 3 -18 -3 -18 -49 l0 -54 80 1 80 1 1 35 c1 45 1 440
0 462 -1 15 -21 17 -181 17 -127 0 -180 -4 -181 -12z"/>
<path d="M765 769 c-4 -6 -5 -12 -2 -15 2 -3 7 2 10 11 7 17 1 20 -8 4z"/>
<path d="M788 753 c7 -3 16 -2 19 1 4 3 -2 6 -13 5 -11 0 -14 -3 -6 -6z"/>
<path d="M23 592 l-23 -3 0 -257 0 -257 208 2 c114 1 229 2 255 3 l48 0 -3 82
-3 82 -47 1 c-44 0 -48 -2 -49 -25 -1 -14 -1 -28 0 -32 0 -5 -69 -8 -154 -8
l-155 0 0 155 0 155 156 0 156 0 -4 -30 c-5 -33 1 -37 57 -35 l40 1 3 82 3 82
-43 1 c-222 3 -427 3 -445 1z"/>
<path d="M204 368 l1 -83 153 -1 152 0 0 52 0 51 -100 -1 c-73 -1 -100 2 -101
12 -1 6 -3 17 -4 22 -1 6 -3 15 -4 20 0 6 -23 10 -49 10 l-48 0 0 -82z"/>
</g>
</svg>
