<svg width="229" height="58" viewBox="0 0 229 58" fill="none" xmlns="http://www.w3.org/2000/svg">
<path d="M56.3242 21.7399C56.3242 13.5239 62.6971 7.375 71.6096 7.375C77.208 7.375 81.4371 9.85463 83.2975 14.122L75.9317 17.6537C74.9756 15.3159 73.2947 14.349 71.1553 14.349C67.653 14.349 65.1113 17.1495 65.1113 21.2378C65.1113 24.1256 66.7899 26.0574 69.9309 26.0574C72.1591 26.0574 73.9329 25.1341 75.2481 22.7941L81.5713 26.6511C79.2068 30.6849 74.7506 33.0706 69.336 33.0706C61.4662 33.0706 56.3242 28.5763 56.3242 21.7399Z" fill="white"/>
<path d="M103.294 19.1249C103.294 16.2349 101.033 14.349 98.0784 14.349C94.6669 14.349 92.2138 17.1517 92.2138 21.3273C92.2138 24.2173 93.9379 26.0552 96.8972 26.0552C100.352 26.0552 103.294 23.2569 103.294 19.1249ZM112.834 7.78754L107.921 32.6625C107.921 32.6625 105.522 31.9029 102.489 31.9029C99.8717 31.9029 98.1779 33.0728 93.8925 33.0728C88.571 33.0728 83.4766 28.9932 83.4766 21.7399C83.4766 13.4802 89.4817 7.375 96.8475 7.375C100.172 7.375 104.014 8.80035 106.948 8.80035C110.982 8.80035 112.834 7.78754 112.834 7.78754Z" fill="white"/>
<path d="M192.477 19.1249C192.477 16.2349 190.217 14.349 187.262 14.349C183.857 14.349 181.397 17.1517 181.397 21.3273C181.397 24.2173 183.121 26.0552 186.076 26.0552C189.539 26.0552 192.477 23.2569 192.477 19.1249ZM202.019 7.78754L197.109 32.6625C197.109 32.6625 194.703 31.9029 191.672 31.9029C189.057 31.9029 187.361 33.0728 183.08 33.0728C177.756 33.0728 172.664 28.9932 172.664 21.7399C172.664 13.4802 178.667 7.375 186.033 7.375C189.356 7.375 193.204 8.80035 196.135 8.80035C200.165 8.80035 202.019 7.78754 202.019 7.78754Z" fill="white"/>
<path d="M202.418 30.6412L205.557 24.5382C207.83 26.0072 211.201 26.8345 214.108 26.8345C216.922 26.8345 218.06 26.1447 218.06 25.0468C218.06 22.1961 205.282 24.8154 205.282 16.4139C205.282 10.4484 210.969 7.375 218.428 7.375C221.928 7.375 225.383 8.10841 227.797 9.34605L224.745 15.4513C222.337 13.9823 219.609 13.5697 217.424 13.5697C214.61 13.5697 213.466 14.4385 213.466 15.4513C213.466 18.4351 226.205 15.7721 226.205 24.0798C226.205 30.0497 220.427 33.0706 213.106 33.0706C208.741 33.0706 204.553 32.0185 202.418 30.6412Z" fill="white"/>
<path d="M134.601 7.375C128.989 7.375 124.749 9.74113 119.168 7.78536L114.258 32.6603H122.911L125.366 20.3647C126.138 16.5514 128.187 14.7637 131.142 14.7637C133.463 14.7637 134.555 15.9118 134.555 18.0662C134.555 18.5726 134.514 19.1227 134.376 19.7208L131.825 32.6603H140.467L143.2 18.8957C143.42 17.7912 143.513 16.7849 143.513 15.818C143.513 10.2672 139.875 7.375 134.601 7.375Z" fill="white"/>
<path d="M168.344 0.796875C169.809 1.47354 169.359 2.70899 169.073 3.20011L157.065 23.0219L154.554 10.2658C154.296 8.92772 153.386 7.78613 151.491 7.78613C149.414 7.78613 144.047 7.78831 144.047 7.78831C144.047 7.78831 145.749 8.89061 146.165 10.8922C146.4 11.9945 150.742 32.6589 150.742 32.6589H159.706L179.065 0.796875L168.344 0.796875Z" fill="white"/>
<path d="M164.163 4.98481C163.922 3.72972 163.074 2.66016 161.298 2.66016L154.324 2.66016C154.324 2.66016 155.914 3.69479 156.308 5.5698C156.42 6.08057 157.483 11.1512 158.527 16.1104L164.433 6.35123L164.163 4.98481Z" fill="white"/>
<path d="M118.77 42.3554V41.7782L120.854 41.7748V43.6005C120.534 43.8556 120.204 44.048 119.864 44.1778C119.524 44.3053 119.175 44.3691 118.817 44.3691C118.334 44.3691 117.894 44.2661 117.498 44.0603C117.104 43.8522 116.807 43.5524 116.605 43.1609C116.404 42.7694 116.303 42.3319 116.303 41.8487C116.303 41.3699 116.403 40.9235 116.602 40.5096C116.803 40.0935 117.092 39.7847 117.468 39.5834C117.844 39.382 118.277 39.2813 118.767 39.2813C119.122 39.2813 119.443 39.3395 119.73 39.4558C120.018 39.5699 120.244 39.7299 120.408 39.9357C120.571 40.1416 120.695 40.4101 120.78 40.7412L120.193 40.9023C120.119 40.6517 120.027 40.4548 119.918 40.3116C119.808 40.1684 119.652 40.0543 119.448 39.9693C119.244 39.882 119.018 39.8384 118.77 39.8384C118.472 39.8384 118.215 39.8843 117.998 39.976C117.781 40.0655 117.605 40.1841 117.471 40.3318C117.339 40.4794 117.236 40.6416 117.162 40.8184C117.037 41.1227 116.975 41.4527 116.975 41.8084C116.975 42.2469 117.049 42.6139 117.199 42.9092C117.352 43.2045 117.572 43.4238 117.861 43.567C118.149 43.7102 118.456 43.7818 118.78 43.7818C119.062 43.7818 119.337 43.7281 119.606 43.6207C119.874 43.511 120.078 43.3947 120.216 43.2716V42.3554H118.77ZM121.79 44.2852V39.3652H122.441V43.7046H124.865V44.2852H121.79ZM125.445 41.889C125.445 41.0723 125.664 40.4336 126.103 39.9727C126.541 39.5095 127.107 39.278 127.801 39.278C128.255 39.278 128.665 39.3865 129.029 39.6035C129.394 39.8205 129.671 40.1237 129.862 40.513C130.054 40.9 130.15 41.3397 130.15 41.8319C130.15 42.3308 130.05 42.7772 129.848 43.171C129.647 43.5647 129.362 43.8634 128.992 44.067C128.623 44.2684 128.225 44.3691 127.798 44.3691C127.335 44.3691 126.921 44.2572 126.556 44.0335C126.191 43.8097 125.915 43.5043 125.727 43.1173C125.539 42.7302 125.445 42.3208 125.445 41.889ZM126.116 41.899C126.116 42.4919 126.275 42.9595 126.593 43.3018C126.913 43.6419 127.313 43.812 127.794 43.812C128.284 43.812 128.687 43.6397 129.003 43.2951C129.32 42.9506 129.479 42.4617 129.479 41.8285C129.479 41.4281 129.411 41.079 129.274 40.7815C129.14 40.4817 128.942 40.2501 128.68 40.0868C128.421 39.9212 128.129 39.8384 127.804 39.8384C127.344 39.8384 126.946 39.9973 126.613 40.315C126.282 40.6304 126.116 41.1585 126.116 41.899ZM130.966 44.2852V39.3652H132.812C133.187 39.3652 133.488 39.4156 133.714 39.5162C133.943 39.6147 134.12 39.7679 134.248 39.976C134.378 40.1819 134.443 40.3978 134.443 40.6237C134.443 40.834 134.386 41.032 134.271 41.2177C134.157 41.4034 133.985 41.5534 133.755 41.6675C134.052 41.7547 134.28 41.9035 134.439 42.1138C134.6 42.3241 134.681 42.5725 134.681 42.8588C134.681 43.0893 134.632 43.3041 134.533 43.5032C134.437 43.7001 134.317 43.8522 134.174 43.9596C134.031 44.067 133.851 44.1487 133.634 44.2046C133.419 44.2583 133.155 44.2852 132.842 44.2852H130.966ZM131.617 41.4325H132.681C132.969 41.4325 133.176 41.4135 133.302 41.3755C133.467 41.3263 133.591 41.2446 133.674 41.1305C133.759 41.0164 133.802 40.8732 133.802 40.7009C133.802 40.5376 133.762 40.3944 133.684 40.2713C133.606 40.1461 133.494 40.061 133.349 40.0163C133.203 39.9693 132.954 39.9458 132.6 39.9458H131.617V41.4325ZM131.617 43.7046H132.842C133.052 43.7046 133.2 43.6967 133.285 43.6811C133.435 43.6542 133.56 43.6095 133.661 43.5468C133.761 43.4842 133.844 43.3936 133.909 43.275C133.974 43.1542 134.006 43.0155 134.006 42.8588C134.006 42.6754 133.959 42.5165 133.865 42.3823C133.771 42.2458 133.641 42.1507 133.473 42.097C133.307 42.0411 133.068 42.0131 132.755 42.0131H131.617V43.7046ZM135.037 44.2852L136.926 39.3652H137.628L139.641 44.2852H138.899L138.326 42.7951H136.268L135.728 44.2852H135.037ZM136.456 42.2648H138.124L137.611 40.9023C137.454 40.4884 137.338 40.1483 137.262 39.882C137.199 40.1975 137.111 40.5107 136.997 40.8217L136.456 42.2648ZM140.134 44.2852V39.3652H140.786V43.7046H143.209V44.2852H140.134ZM145.618 44.2852V39.3652H146.269V43.7046L148.692 43.7046V44.2852L145.618 44.2852ZM149.273 41.889C149.273 41.0723 149.492 40.4336 149.931 39.9727C150.369 39.5095 150.935 39.278 151.629 39.278C152.083 39.278 152.492 39.3865 152.857 39.6035C153.222 39.8205 153.499 40.1237 153.689 40.513C153.882 40.9 153.978 41.3397 153.978 41.8319C153.978 42.3308 153.877 42.7772 153.676 43.171C153.475 43.5647 153.189 43.8634 152.82 44.067C152.451 44.2684 152.053 44.3691 151.625 44.3691C151.162 44.3691 150.748 44.2572 150.384 44.0335C150.019 43.8097 149.743 43.5043 149.555 43.1173C149.367 42.7302 149.273 42.3208 149.273 41.889ZM149.944 41.899C149.944 42.4919 150.103 42.9595 150.421 43.3018C150.741 43.6419 151.141 43.812 151.622 43.812C152.112 43.812 152.515 43.6397 152.83 43.2951C153.148 42.9506 153.307 42.4617 153.307 41.8285C153.307 41.4281 153.239 41.079 153.102 40.7815C152.968 40.4817 152.77 40.2501 152.508 40.0868C152.249 39.9212 151.957 39.8384 151.632 39.8384C151.171 39.8384 150.774 39.9973 150.441 40.315C150.11 40.6304 149.944 41.1585 149.944 41.899ZM157.123 42.3554V41.7782L159.207 41.7748V43.6005C158.887 43.8556 158.557 44.048 158.217 44.1778C157.877 44.3053 157.528 44.3691 157.17 44.3691C156.686 44.3691 156.247 44.2661 155.851 44.0603C155.457 43.8522 155.159 43.5524 154.958 43.1609C154.757 42.7694 154.656 42.3319 154.656 41.8487C154.656 41.3699 154.756 40.9235 154.955 40.5096C155.156 40.0935 155.445 39.7847 155.821 39.5834C156.196 39.382 156.629 39.2813 157.119 39.2813C157.475 39.2813 157.796 39.3395 158.082 39.4558C158.371 39.5699 158.597 39.7299 158.76 39.9357C158.924 40.1416 159.048 40.4101 159.133 40.7412L158.546 40.9023C158.472 40.6517 158.38 40.4548 158.27 40.3116C158.161 40.1684 158.004 40.0543 157.801 39.9693C157.597 39.882 157.371 39.8384 157.123 39.8384C156.825 39.8384 156.568 39.8843 156.351 39.976C156.134 40.0655 155.958 40.1841 155.824 40.3318C155.692 40.4794 155.589 40.6416 155.515 40.8184C155.39 41.1227 155.327 41.4527 155.327 41.8084C155.327 42.2469 155.402 42.6139 155.552 42.9092C155.704 43.2045 155.925 43.4238 156.213 43.567C156.502 43.7102 156.808 43.7818 157.133 43.7818C157.415 43.7818 157.69 43.7281 157.958 43.6207C158.227 43.511 158.43 43.3947 158.569 43.2716V42.3554H157.123ZM160.281 44.2852V39.3652H160.932V44.2852H160.281ZM161.861 42.7045L162.476 42.6508C162.505 42.8969 162.572 43.0994 162.677 43.2582C162.784 43.4148 162.95 43.5424 163.174 43.6408C163.397 43.737 163.649 43.7851 163.929 43.7851C164.177 43.7851 164.396 43.7482 164.586 43.6744C164.777 43.6005 164.918 43.4998 165.009 43.3723C165.103 43.2426 165.15 43.1016 165.15 42.9495C165.15 42.7951 165.106 42.6608 165.016 42.5467C164.927 42.4304 164.779 42.3331 164.573 42.2548C164.441 42.2033 164.149 42.1239 163.697 42.0165C163.245 41.9069 162.929 41.8039 162.747 41.7077C162.512 41.5847 162.337 41.4325 162.22 41.2513C162.106 41.0678 162.049 40.8631 162.049 40.6372C162.049 40.3888 162.12 40.1572 162.261 39.9425C162.402 39.7254 162.608 39.561 162.878 39.4491C163.149 39.3373 163.45 39.2813 163.781 39.2813C164.146 39.2813 164.467 39.3406 164.744 39.4592C165.024 39.5755 165.239 39.7478 165.389 39.976C165.538 40.2042 165.619 40.4626 165.63 40.7513L165.006 40.7982C164.972 40.4873 164.858 40.2523 164.664 40.0935C164.471 39.9346 164.186 39.8552 163.808 39.8552C163.414 39.8552 163.127 39.9279 162.945 40.0733C162.766 40.2165 162.677 40.3899 162.677 40.5935C162.677 40.7703 162.741 40.9157 162.868 41.0298C162.993 41.1439 163.32 41.2614 163.848 41.3822C164.378 41.5008 164.742 41.6048 164.939 41.6943C165.225 41.8263 165.437 41.9941 165.573 42.1977C165.71 42.3991 165.778 42.6318 165.778 42.8958C165.778 43.1575 165.703 43.4048 165.553 43.6374C165.403 43.8679 165.187 44.048 164.905 44.1778C164.626 44.3053 164.31 44.3691 163.959 44.3691C163.514 44.3691 163.14 44.3042 162.838 44.1744C162.538 44.0446 162.302 43.85 162.13 43.5905C161.96 43.3287 161.87 43.0334 161.861 42.7045ZM167.919 44.2852V39.9458H166.298V39.3652H170.198V39.9458H168.57V44.2852H167.919ZM170.98 44.2852V39.3652H171.631V44.2852H170.98ZM176.292 42.5602L176.943 42.7246C176.807 43.2593 176.561 43.6676 176.205 43.9496C175.852 44.2292 175.419 44.3691 174.906 44.3691C174.376 44.3691 173.944 44.2617 173.611 44.0469C173.28 43.8299 173.027 43.5166 172.852 43.1072C172.68 42.6978 172.594 42.2581 172.594 41.7883C172.594 41.2759 172.691 40.8296 172.886 40.4492C173.083 40.0666 173.361 39.7769 173.722 39.58C174.084 39.3809 174.482 39.2813 174.916 39.2813C175.409 39.2813 175.822 39.4066 176.158 39.6572C176.494 39.9078 176.727 40.2602 176.859 40.7143L176.218 40.8654C176.104 40.5074 175.939 40.2467 175.722 40.0834C175.505 39.9201 175.232 39.8384 174.903 39.8384C174.525 39.8384 174.208 39.929 173.953 40.1103C173.7 40.2915 173.522 40.5354 173.42 40.8419C173.317 41.1462 173.265 41.4605 173.265 41.7849C173.265 42.2033 173.326 42.5691 173.446 42.8823C173.569 43.1933 173.76 43.426 174.017 43.5804C174.274 43.7348 174.553 43.812 174.853 43.812C175.217 43.812 175.526 43.7068 175.779 43.4965C176.032 43.2862 176.203 42.9741 176.292 42.5602ZM177.527 42.7045L178.141 42.6508C178.171 42.8969 178.238 43.0994 178.343 43.2582C178.45 43.4148 178.616 43.5424 178.84 43.6408C179.063 43.737 179.315 43.7851 179.595 43.7851C179.843 43.7851 180.062 43.7482 180.252 43.6744C180.443 43.6005 180.584 43.4998 180.675 43.3723C180.769 43.2426 180.816 43.1016 180.816 42.9495C180.816 42.7951 180.771 42.6608 180.682 42.5467C180.592 42.4304 180.445 42.3331 180.239 42.2548C180.107 42.2033 179.815 42.1239 179.363 42.0165C178.911 41.9069 178.595 41.8039 178.413 41.7077C178.178 41.5847 178.003 41.4325 177.886 41.2513C177.772 41.0678 177.715 40.8631 177.715 40.6372C177.715 40.3888 177.786 40.1572 177.927 39.9425C178.068 39.7254 178.273 39.561 178.544 39.4491C178.815 39.3373 179.116 39.2813 179.447 39.2813C179.812 39.2813 180.133 39.3406 180.41 39.4592C180.69 39.5755 180.905 39.7478 181.054 39.976C181.204 40.2042 181.285 40.4626 181.296 40.7513L180.672 40.7982C180.638 40.4873 180.524 40.2523 180.33 40.0935C180.137 39.9346 179.852 39.8552 179.474 39.8552C179.08 39.8552 178.793 39.9279 178.611 40.0733C178.432 40.2165 178.343 40.3899 178.343 40.5935C178.343 40.7703 178.407 40.9157 178.534 41.0298C178.659 41.1439 178.986 41.2614 179.514 41.3822C180.044 41.5008 180.408 41.6048 180.605 41.6943C180.891 41.8263 181.103 41.9941 181.239 42.1977C181.376 42.3991 181.444 42.6318 181.444 42.8958C181.444 43.1575 181.369 43.4048 181.219 43.6374C181.069 43.8679 180.853 44.048 180.571 44.1778C180.292 44.3053 179.976 44.3691 179.625 44.3691C179.18 44.3691 178.806 44.3042 178.504 44.1744C178.204 44.0446 177.968 43.85 177.796 43.5905C177.626 43.3287 177.536 43.0334 177.527 42.7045ZM184.025 42.7045L184.639 42.6508C184.668 42.8969 184.735 43.0994 184.84 43.2582C184.947 43.4148 185.113 43.5424 185.337 43.6408C185.561 43.737 185.812 43.7851 186.092 43.7851C186.34 43.7851 186.56 43.7482 186.75 43.6744C186.94 43.6005 187.081 43.4998 187.173 43.3723C187.267 43.2426 187.313 43.1016 187.313 42.9495C187.313 42.7951 187.269 42.6608 187.179 42.5467C187.09 42.4304 186.942 42.3331 186.736 42.2548C186.604 42.2033 186.312 42.1239 185.86 42.0165C185.408 41.9069 185.092 41.8039 184.911 41.7077C184.676 41.5847 184.5 41.4325 184.384 41.2513C184.27 41.0678 184.213 40.8631 184.213 40.6372C184.213 40.3888 184.283 40.1572 184.424 39.9425C184.565 39.7254 184.771 39.561 185.041 39.4491C185.312 39.3373 185.613 39.2813 185.944 39.2813C186.309 39.2813 186.63 39.3406 186.907 39.4592C187.187 39.5755 187.402 39.7478 187.552 39.976C187.702 40.2042 187.782 40.4626 187.793 40.7513L187.169 40.7982C187.136 40.4873 187.022 40.2523 186.827 40.0935C186.634 39.9346 186.349 39.8552 185.971 39.8552C185.577 39.8552 185.29 39.9279 185.109 40.0733C184.93 40.2165 184.84 40.3899 184.84 40.5935C184.84 40.7703 184.904 40.9157 185.031 41.0298C185.157 41.1439 185.483 41.2614 186.011 41.3822C186.542 41.5008 186.905 41.6048 187.102 41.6943C187.388 41.8263 187.6 41.9941 187.736 42.1977C187.873 42.3991 187.941 42.6318 187.941 42.8958C187.941 43.1575 187.866 43.4048 187.716 43.6374C187.566 43.8679 187.35 44.048 187.068 44.1778C186.789 44.3053 186.473 44.3691 186.122 44.3691C185.677 44.3691 185.303 44.3042 185.001 44.1744C184.701 44.0446 184.465 43.85 184.293 43.5905C184.123 43.3287 184.034 43.0334 184.025 42.7045ZM188.83 44.2852V39.3652H190.525C190.908 39.3652 191.2 39.3887 191.401 39.4357C191.683 39.5006 191.924 39.618 192.123 39.7881C192.382 40.0073 192.576 40.2881 192.703 40.6304C192.833 40.9705 192.898 41.3598 192.898 41.7983C192.898 42.172 192.854 42.5031 192.767 42.7917C192.68 43.0803 192.568 43.3197 192.431 43.5099C192.295 43.6979 192.145 43.8466 191.982 43.9563C191.821 44.0637 191.625 44.1453 191.394 44.2013C191.166 44.2572 190.903 44.2852 190.606 44.2852H188.83ZM189.481 43.7046H190.532C190.856 43.7046 191.11 43.6744 191.294 43.614C191.479 43.5535 191.627 43.4685 191.737 43.3589C191.891 43.2045 192.011 42.9976 192.096 42.738C192.183 42.4763 192.227 42.1597 192.227 41.7883C192.227 41.2737 192.142 40.8788 191.972 40.6036C191.804 40.3262 191.599 40.1405 191.357 40.0465C191.183 39.9794 190.902 39.9458 190.515 39.9458H189.481V43.7046ZM193.791 44.2852V39.3652H194.458L197.043 43.228V39.3652H197.667V44.2852H196.999L194.415 40.419V44.2852H193.791ZM198.858 44.2852V43.5972H199.546V44.2852H198.858ZM202.563 44.2852V39.3652H204.409C204.785 39.3652 205.086 39.4156 205.312 39.5162C205.54 39.6147 205.718 39.7679 205.845 39.976C205.975 40.1819 206.04 40.3978 206.04 40.6237C206.04 40.834 205.983 41.032 205.869 41.2177C205.755 41.4034 205.583 41.5534 205.352 41.6675C205.65 41.7547 205.878 41.9035 206.037 42.1138C206.198 42.3241 206.278 42.5725 206.278 42.8588C206.278 43.0893 206.229 43.3041 206.131 43.5032C206.035 43.7001 205.915 43.8522 205.772 43.9596C205.628 44.067 205.448 44.1487 205.231 44.2046C205.017 44.2583 204.753 44.2852 204.439 44.2852H202.563ZM203.214 41.4325H204.278C204.567 41.4325 204.774 41.4135 204.899 41.3755C205.065 41.3263 205.189 41.2446 205.272 41.1305C205.357 41.0164 205.399 40.8732 205.399 40.7009C205.399 40.5376 205.36 40.3944 205.282 40.2713C205.203 40.1461 205.091 40.061 204.946 40.0163C204.801 39.9693 204.551 39.9458 204.198 39.9458H203.214V41.4325ZM203.214 43.7046H204.439C204.65 43.7046 204.797 43.6967 204.882 43.6811C205.032 43.6542 205.157 43.6095 205.258 43.5468C205.359 43.4842 205.442 43.3936 205.507 43.275C205.571 43.1542 205.604 43.0155 205.604 42.8588C205.604 42.6754 205.557 42.5165 205.463 42.3823C205.369 42.2458 205.238 42.1507 205.07 42.097C204.905 42.0411 204.665 42.0131 204.352 42.0131H203.214V43.7046ZM207.195 44.2852V39.3652H207.846V41.3855H210.403V39.3652H211.054V44.2852H210.403V41.9661H207.846V44.2852H207.195ZM212.141 44.2852V39.3652H213.836C214.219 39.3652 214.511 39.3887 214.712 39.4357C214.994 39.5006 215.235 39.618 215.434 39.7881C215.693 40.0073 215.887 40.2881 216.014 40.6304C216.144 40.9705 216.209 41.3598 216.209 41.7983C216.209 42.172 216.165 42.5031 216.078 42.7917C215.991 43.0803 215.879 43.3197 215.742 43.5099C215.606 43.6979 215.456 43.8466 215.293 43.9563C215.132 44.0637 214.936 44.1453 214.705 44.2013C214.477 44.2572 214.214 44.2852 213.917 44.2852H212.141ZM212.792 43.7046H213.843C214.167 43.7046 214.421 43.6744 214.605 43.614C214.79 43.5535 214.938 43.4685 215.048 43.3589C215.202 43.2045 215.322 42.9976 215.407 42.738C215.494 42.4763 215.538 42.1597 215.538 41.7883C215.538 41.2737 215.453 40.8788 215.283 40.6036C215.115 40.3262 214.91 40.1405 214.668 40.0465C214.494 39.9794 214.213 39.9458 213.826 39.9458H212.792V43.7046ZM217.202 44.2852V43.5972H217.89V44.2852H217.202Z" fill="white"/>
<path d="M19.151 26.5684V22.7031L12.7695 22.7031L12.7695 33.0105L31.9198 33.0105L31.9198 26.5684L19.151 26.5684Z" fill="white"/>
<path d="M21.707 0.796875L21.707 7.23898L38.3065 7.23898L38.3065 26.5668L34.4773 26.5668L34.4773 33.0089L44.6924 33.0104L44.6924 0.796875L21.707 0.796875Z" fill="white"/>
<path d="M0 13.6836L0 45.8956L31.9221 45.8956L31.9221 35.5614L25.5406 35.5614V39.4535L6.38441 39.4535L6.38441 20.1257L25.5406 20.1257V24.0774L31.9221 24.0774L31.9221 13.6836L0 13.6836Z" fill="white"/>
<path d="M12.7709 0.800781L19.1523 0.800781L19.1523 11.1096L12.7709 11.1096L12.7709 0.800781Z" fill="white"/>
<path d="M48.2818 4.65917V2.16372H47.3325V1.72864H49.7272V2.16372H48.7708V4.65917H48.2818ZM50.0545 4.65917V1.72864H50.7736L51.5143 4.06947L52.2299 1.72864H52.9346V4.65917H52.4888V2.19968L51.7337 4.65917H51.2914L50.5039 2.16372V4.65917H50.0545Z" fill="white"/>
</svg>
