<svg width="28" height="29" viewBox="0 0 28 29" fill="none" xmlns="http://www.w3.org/2000/svg">
<path fill-rule="evenodd" clip-rule="evenodd" d="M14.0001 6.90844C10.0296 6.90844 6.81087 10.1271 6.81087 14.0977C6.81087 18.0681 10.0296 21.2868 14.0001 21.2868C17.9705 21.2868 21.1892 18.0681 21.1892 14.0977C21.1892 10.1271 17.9705 6.90844 14.0001 6.90844ZM14.0001 18.7643C11.4227 18.7643 9.33339 16.6749 9.33339 14.0977C9.33339 11.5203 11.4227 9.43095 14.0001 9.43095C16.5773 9.43095 18.6667 11.5203 18.6667 14.0977C18.6667 16.6749 16.5773 18.7643 14.0001 18.7643Z" fill="white"/>
<path d="M21.4732 8.30439C22.401 8.30439 23.1532 7.55227 23.1532 6.62439C23.1532 5.69656 22.401 4.94444 21.4732 4.94444C20.5453 4.94444 19.7932 5.69656 19.7932 6.62439C19.7932 7.55227 20.5453 8.30439 21.4732 8.30439Z" fill="white"/>
<path fill-rule="evenodd" clip-rule="evenodd" d="M14 0.0976562C10.1978 0.0976562 9.72103 0.113789 8.22779 0.18193C6.73766 0.249906 5.71993 0.486539 4.8294 0.832656C3.90879 1.19042 3.12802 1.66916 2.34976 2.44747C1.57144 3.22573 1.09271 4.0065 0.734945 4.92711C0.388828 5.81758 0.152195 6.83532 0.0842187 8.32544C0.0160781 9.81869 0 10.2955 0 14.0977C0 17.8997 0.0160781 18.3765 0.0842187 19.8698C0.152195 21.3599 0.388828 22.3776 0.734945 23.2681C1.09271 24.1887 1.57144 24.9695 2.34976 25.7478C3.12802 26.5261 3.90879 27.0048 4.8294 27.3626C5.71993 27.7087 6.73766 27.9453 8.22779 28.0133C9.72103 28.0814 10.1978 28.0975 14 28.0975C17.8021 28.0975 18.2789 28.0814 19.7721 28.0133C21.2622 27.9453 22.28 27.7087 23.1704 27.3626C24.091 27.0048 24.8718 26.5261 25.6502 25.7478C26.4284 24.9695 26.9072 24.1887 27.2649 23.2681C27.611 22.3776 27.8477 21.3599 27.9157 19.8698C27.9838 18.3765 27.9999 17.8997 27.9999 14.0977C27.9999 10.2955 27.9838 9.81869 27.9157 8.32544C27.8477 6.83532 27.611 5.81758 27.2649 4.92711C26.9072 4.0065 26.4284 3.22573 25.6502 2.44747C24.8718 1.66916 24.091 1.19042 23.1704 0.832656C22.28 0.486539 21.2622 0.249906 19.7721 0.18193C18.2789 0.113789 17.8021 0.0976562 14 0.0976562ZM14 2.62023C17.7381 2.62023 18.1809 2.63444 19.6571 2.70182C21.0221 2.76411 21.7634 2.99216 22.2567 3.18384C22.9102 3.4378 23.3766 3.74121 23.8664 4.2311C24.3564 4.72099 24.6597 5.18742 24.9137 5.84083C25.1054 6.33416 25.3335 7.07545 25.3958 8.4404C25.4631 9.91669 25.4774 10.3595 25.4774 14.0977C25.4774 17.8358 25.4631 18.2786 25.3958 19.7548C25.3335 21.1197 25.1054 21.861 24.9137 22.3544C24.6597 23.0078 24.3564 23.4742 23.8664 23.9641C23.3766 24.454 22.9102 24.7574 22.2567 25.0114C21.7634 25.2031 21.0221 25.4311 19.6571 25.4934C18.1811 25.5608 17.7384 25.575 14 25.575C10.2615 25.575 9.81887 25.5608 8.34274 25.4934C6.9778 25.4311 6.23651 25.2031 5.74317 25.0114C5.08971 24.7574 4.62334 24.454 4.13339 23.9641C3.6435 23.4742 3.34009 23.0078 3.08618 22.3544C2.89444 21.861 2.6664 21.1197 2.60411 19.7548C2.53673 18.2786 2.52252 17.8358 2.52252 14.0977C2.52252 10.3595 2.53673 9.91669 2.60411 8.4404C2.6664 7.07545 2.89444 6.33416 3.08618 5.84083C3.34009 5.18742 3.6435 4.72099 4.13339 4.2311C4.62334 3.74121 5.08971 3.4378 5.74317 3.18384C6.23651 2.99216 6.9778 2.76411 8.34274 2.70182C9.81903 2.63444 10.2618 2.62023 14 2.62023Z" fill="white"/>
</svg>
