<svg width="38" height="38" viewBox="0 0 38 38" fill="none" xmlns="http://www.w3.org/2000/svg">
<path fill-rule="evenodd" clip-rule="evenodd" d="M29.3759 14.47L31.6711 15.7951L24.1604 20.1314V23.5465L26.3385 24.8041V21.389L33.8492 17.0527L36.1445 18.3779C36.3805 18.5141 36.5156 18.7481 36.5156 19.0206V26.8363C36.5156 27.1088 36.3805 27.3428 36.1445 27.479L29.3759 31.3869C29.1398 31.5231 28.8697 31.5231 28.6337 31.3869L21.8651 27.479C21.6291 27.3428 21.494 27.1088 21.494 26.8363V19.0206C21.494 18.7481 21.6291 18.5141 21.8651 18.3779L28.6337 14.47C28.8698 14.3338 29.1399 14.3338 29.3759 14.47ZM11.4842 12.9831C11.7572 11.5848 12.8349 11.3611 13.5894 10.8898C14.1931 10.5127 15.294 10.3983 16.1232 10.1752C16.8014 9.99272 16.7912 9.21728 16.8788 8.60631C17.0705 7.26748 16.7816 7.0662 15.6056 6.89869C13.6473 6.61977 14.3039 5.26031 11.669 5.81495C9.06085 6.36402 9.80407 6.16741 7.17777 5.37223C5.01711 6.82588 3.27757 8.85747 2.1807 11.2455C3.64073 15.6111 6.63961 16.4452 7.15216 16.9738C7.5957 17.4311 8.22789 17.7816 8.24407 19.226C8.29602 23.8675 10.4052 20.6635 11.3515 25.9688C12.2471 30.9899 14.0687 29.4724 14.4347 26.5138C14.7488 23.9739 17.2469 23.4699 17.4763 20.4477C17.6117 18.6643 12.4904 17.2056 11.9214 17.2509C9.57941 17.4372 9.93173 17.8382 8.62444 15.742C6.98517 13.1135 11.1533 14.6779 11.4842 12.9831ZM15.0991 2.96094C12.7312 2.96094 10.4989 3.54088 8.53568 4.56547C8.86083 4.67754 9.30948 4.87244 9.62988 4.92707C10.0068 4.99134 11.0524 4.7312 11.4244 4.6529C12.5651 4.41273 13.6243 4.36479 14.6004 5.09183C15.0643 5.43747 15.1626 5.63608 15.773 5.72299C16.4838 5.82422 17.1935 5.97385 17.6741 6.56114C18.1955 7.19831 18.164 8.00804 18.0542 8.77449C17.9979 9.16807 17.9773 9.52373 17.8542 9.91115C17.6325 10.6084 17.1531 11.1277 16.4318 11.3218C15.9153 11.4608 14.6145 11.6496 14.2185 11.8969C13.8489 12.1277 13.3978 12.2993 13.0551 12.5488C12.8109 12.7266 12.7077 12.9134 12.6496 13.2106C12.4336 14.317 11.5343 14.8153 10.5195 15.021C10.3342 15.0585 9.97018 15.1008 9.65527 15.1514C9.80497 15.3962 10.1343 15.9684 10.3404 16.2213C10.8244 16.1959 11.3352 16.1061 11.8271 16.067C12.6708 15.9998 14.6635 16.7373 15.4376 17.0749C16.8103 17.6735 18.7938 18.7778 18.6603 20.5374C18.5371 22.1608 17.9138 23.2186 16.8951 24.4269C16.316 25.1137 15.7288 25.7244 15.6131 26.6594C15.4483 27.9917 14.8683 30.0918 13.3226 30.3983C12.3544 30.5904 11.5963 29.978 11.1342 29.1872C10.6292 28.3229 10.3567 27.1545 10.1824 26.1772C9.97908 25.0373 9.79287 24.0075 8.79566 23.331C8.25053 22.9612 7.86422 22.6322 7.55844 22.0268C7.14274 21.2038 7.06674 20.1461 7.05664 19.2391C7.04714 18.3885 6.84831 18.3597 6.32663 17.8279C5.61487 17.2935 4.88063 16.9947 4.11565 16.3379C2.99235 15.3736 2.15546 14.197 1.55028 12.8798C1.12219 14.2333 0.890625 15.6742 0.890625 17.1692C0.890625 25.0163 7.25199 31.3777 15.0991 31.3777C17.8399 31.3777 20.3994 30.6014 22.5699 29.2569L21.2715 28.5073C20.6681 28.1589 20.3066 27.5328 20.3066 26.8361V19.594C18.6088 19.1557 17.3159 17.2668 17.9217 15.5432C18.0836 15.0824 18.3318 14.6874 18.5909 14.2789C18.6547 14.1784 18.8136 13.9379 18.8774 13.7877C18.6654 13.1371 19.0296 12.4687 19.4637 11.9926C19.7133 11.7188 20.0239 11.4827 20.3661 11.3454C19.6188 10.2658 19.8194 7.96744 20.7911 7.07904C21.3311 6.58534 22.0321 6.2653 22.7138 6.01556C22.9775 5.91893 23.244 5.83194 23.5101 5.74214L23.5331 5.73442C21.1741 3.99191 18.2571 2.96094 15.0991 2.96094ZM20.0114 13.4324C20.6227 14.7484 17.11 16.2637 20.2845 18.3451C20.3267 18.3606 20.3689 18.3747 20.411 18.3883C20.559 17.9562 20.8586 17.5878 21.2714 17.3494L28.04 13.4416C28.2627 13.313 28.5018 13.2319 28.7451 13.1983C27.9928 10.6088 26.5235 8.32436 24.5663 6.57435C24.2451 6.86247 22.4739 7.1497 21.5923 7.95564C20.8269 8.65545 21.1665 10.2336 21.3366 10.6596C21.5081 10.9956 24.4902 10.5778 24.8576 10.5922C26.577 10.6596 25.7836 12.566 25.283 12.7033C24.8827 12.813 22.1585 12.7678 21.0919 12.4216C20.6269 12.2706 19.9153 13.2255 20.0114 13.4324Z" fill="#F6F6F6"/>
</svg>
