<svg width="62" height="62" viewBox="0 0 62 62" fill="none" xmlns="http://www.w3.org/2000/svg">
<rect width="62" height="62" fill="#0057C1"/>
<path d="M20.6457 24.6322L23.7404 21.6791C24.1353 21.3022 24.7595 21.3117 25.1428 21.7003L30.7732 27.4089C31.1572 27.7983 31.1572 28.4239 30.7732 28.8133L27.9538 31.6719C27.432 32.2009 27.3025 33.0023 27.6312 33.6687L27.6677 33.7428C29.564 37.588 32.6562 40.7146 36.4804 42.6532C37.149 42.9922 37.96 42.86 38.4864 42.3263L41.2743 39.4996C41.6659 39.1026 42.3067 39.1026 42.6983 39.4996L48.2654 45.1441C48.6657 45.5499 48.6463 46.2076 48.223 46.5892L44.6488 49.8103C42.5763 51.6781 39.4898 51.8709 37.201 50.2755L30.6492 45.7086C28.2921 44.0656 26.2637 41.9954 24.669 39.6053L19.7969 32.303C18.1796 29.8792 18.5377 26.6438 20.6457 24.6322Z" fill="white"/>
<path d="M36.5424 27.1821C36.86 25.1323 35.4431 23.2057 33.3825 22.8896V22.8887C32.8673 22.8096 32.5138 22.3289 32.5932 21.8153C32.6726 21.3026 33.1565 20.9527 33.6717 21.0298C36.7617 21.5049 38.8875 24.3929 38.4111 27.469C38.3393 27.9337 37.9366 28.2667 37.4782 28.2667C37.43 28.2667 37.3818 28.263 37.3326 28.2555C36.8165 28.1764 36.463 27.6957 36.5424 27.1821Z" fill="white"/>
<path d="M33.1688 18.0976C33.2482 17.5839 33.736 17.2321 34.2473 17.3111C36.7428 17.6949 38.9386 19.0223 40.4311 21.0495C41.9237 23.0768 42.5333 25.5603 42.1477 28.0438C42.0758 28.5085 41.6732 28.8415 41.2147 28.8415C41.1665 28.8415 41.1174 28.8378 41.0692 28.8302C40.5531 28.7503 40.1995 28.2696 40.2789 27.7569C40.5871 25.7701 40.0993 23.7833 38.9055 22.1615C37.7117 20.5397 35.9554 19.4776 33.959 19.1709C33.4429 19.091 33.0894 18.6103 33.1688 18.0976Z" fill="white"/>
<path d="M33.7454 14.3789C33.8248 13.8653 34.3097 13.5163 34.8239 13.5925V13.5934C42.0361 14.7016 46.9977 21.4409 45.8842 28.6176C45.8124 29.0823 45.4097 29.4154 44.9513 29.4154C44.9031 29.4154 44.8539 29.4116 44.8057 29.4041C44.2896 29.3241 43.9361 28.8434 44.0155 28.3307C44.9692 22.1784 40.7166 16.4015 34.5356 15.4523C34.0195 15.3723 33.666 14.8916 33.7454 14.3789Z" fill="white"/>
</svg>
