<svg width="28" height="24" viewBox="0 0 28 24" fill="none" xmlns="http://www.w3.org/2000/svg">
<path d="M8.80544 23.1821C19.3715 23.1821 25.1507 14.4282 25.1507 6.83684C25.1507 6.5882 25.1507 6.34068 25.1339 6.09428C26.2582 5.28106 27.2287 4.27415 28 3.12068C26.9516 3.58548 25.8394 3.89016 24.7005 4.02452C25.8998 3.30666 26.7973 2.17743 27.2261 0.84708C26.0984 1.51629 24.8647 1.98788 23.5782 2.24148C22.7121 1.32049 21.5666 0.710629 20.3189 0.506279C19.0712 0.301929 17.791 0.514481 16.6763 1.11104C15.5616 1.7076 14.6746 2.65492 14.1525 3.80639C13.6305 4.95786 13.5025 6.24929 13.7883 7.48084C11.5044 7.36627 9.27005 6.77271 7.23036 5.73869C5.19068 4.70466 3.39122 3.25328 1.9488 1.47876C1.21418 2.74342 0.989184 4.24053 1.31962 5.66525C1.65005 7.08998 2.51107 8.33521 3.72736 9.1474C2.8131 9.12061 1.91876 8.87397 1.12 8.42836V8.50116C1.12036 9.82749 1.57949 11.1129 2.41952 12.1393C3.25954 13.1657 4.42874 13.8699 5.7288 14.1325C4.88306 14.3632 3.99569 14.3969 3.13488 14.2311C3.50212 15.3725 4.21683 16.3706 5.17911 17.0858C6.14139 17.8011 7.30313 18.1978 8.50192 18.2205C7.31084 19.1567 5.94687 19.8489 4.48802 20.2575C3.02917 20.6661 1.50408 20.783 0 20.6016C2.62714 22.2875 5.68391 23.1817 8.80544 23.1776" fill="white"/>
</svg>
