<svg width="62" height="62" viewBox="0 0 62 62" fill="none" xmlns="http://www.w3.org/2000/svg">
<rect width="62" height="62" fill="#0057C1"/>
<path d="M28.2474 43.1731L29.2958 37.9314C29.3511 37.6547 29.3788 37.5163 29.3037 37.4248C29.2287 37.3333 29.0876 37.3333 28.8055 37.3333H25.5485C25.1569 37.3333 24.9612 37.3333 24.8894 37.2065C24.8176 37.0797 24.9183 36.9118 25.1197 36.5761L28.961 30.1739C29.1625 29.8382 29.2632 29.6703 29.1914 29.5435C29.1196 29.4167 28.9238 29.4167 28.5323 29.4167H23.8035C23.4758 29.4167 23.3119 29.4167 23.2373 29.3091C23.1627 29.2015 23.2203 29.048 23.3354 28.7411L27.7104 17.0744C27.7692 16.9175 27.7986 16.839 27.8629 16.7945C27.9271 16.75 28.0109 16.75 28.1785 16.75H36.4489C36.8405 16.75 37.0362 16.75 37.108 16.8768C37.1798 17.0037 37.0791 17.1715 36.8777 17.5072L33.0364 23.9094C32.8349 24.2452 32.7342 24.413 32.806 24.5398C32.8778 24.6667 33.0736 24.6667 33.4651 24.6667H36.332C36.7684 24.6667 36.9865 24.6667 37.0556 24.8049C37.1247 24.9431 36.9938 25.1176 36.732 25.4667L33.182 30.2C32.9202 30.5491 32.7893 30.7236 32.8584 30.8618C32.9275 31 33.1457 31 33.582 31H37.893C38.3378 31 38.5602 31 38.6288 31.1402C38.6973 31.2803 38.5608 31.4559 38.2877 31.807L38.2877 31.807L29.1324 43.5781C28.6179 44.2395 28.3607 44.5702 28.1808 44.4879C28.0009 44.4056 28.0831 43.9947 28.2474 43.1731Z" fill="white"/>
</svg>
