<svg width="62" height="62" viewBox="0 0 62 62" fill="none" xmlns="http://www.w3.org/2000/svg">
<rect width="62" height="62" fill="#0057C1"/>
<path fill-rule="evenodd" clip-rule="evenodd" d="M41.3759 26.47L43.6711 27.7951L36.1604 32.1314V35.5465L38.3385 36.8041V33.389L45.8492 29.0527L48.1445 30.3779C48.3805 30.5141 48.5156 30.7481 48.5156 31.0206V38.8363C48.5156 39.1088 48.3805 39.3428 48.1445 39.479L41.3759 43.3869C41.1398 43.5231 40.8697 43.5231 40.6337 43.3869L33.8651 39.479C33.6291 39.3428 33.494 39.1088 33.494 38.8363V31.0206C33.494 30.7481 33.6291 30.5141 33.8651 30.3779L40.6337 26.47C40.8698 26.3338 41.1399 26.3338 41.3759 26.47ZM23.4842 24.9831C23.7572 23.5848 24.8349 23.3611 25.5894 22.8898C26.1931 22.5127 27.294 22.3983 28.1232 22.1752C28.8014 21.9927 28.7912 21.2173 28.8788 20.6063C29.0705 19.2675 28.7816 19.0662 27.6056 18.8987C25.6473 18.6198 26.3039 17.2603 23.669 17.8149C21.0608 18.364 21.8041 18.1674 19.1778 17.3722C17.0171 18.8259 15.2776 20.8575 14.1807 23.2455C15.6407 27.6111 18.6396 28.4452 19.1522 28.9738C19.5957 29.4311 20.2279 29.7816 20.2441 31.226C20.296 35.8675 22.4052 32.6635 23.3515 37.9688C24.2471 42.9899 26.0687 41.4724 26.4347 38.5138C26.7488 35.9739 29.2469 35.4699 29.4763 32.4477C29.6117 30.6643 24.4904 29.2056 23.9214 29.2509C21.5794 29.4372 21.9317 29.8382 20.6244 27.742C18.9852 25.1135 23.1533 26.6779 23.4842 24.9831ZM27.0991 14.9609C24.7312 14.9609 22.4989 15.5409 20.5357 16.5655C20.8608 16.6775 21.3095 16.8724 21.6299 16.9271C22.0068 16.9913 23.0524 16.7312 23.4244 16.6529C24.5651 16.4127 25.6243 16.3648 26.6004 17.0918C27.0643 17.4375 27.1626 17.6361 27.773 17.723C28.4838 17.8242 29.1935 17.9738 29.6741 18.5611C30.1955 19.1983 30.164 20.008 30.0542 20.7745C29.9979 21.1681 29.9773 21.5237 29.8542 21.9112C29.6325 22.6084 29.1531 23.1277 28.4318 23.3218C27.9153 23.4608 26.6145 23.6496 26.2185 23.8969C25.8489 24.1277 25.3978 24.2993 25.0551 24.5488C24.8109 24.7266 24.7077 24.9134 24.6496 25.2106C24.4336 26.317 23.5343 26.8153 22.5195 27.021C22.3342 27.0585 21.9702 27.1008 21.6553 27.1514C21.805 27.3962 22.1343 27.9684 22.3404 28.2213C22.8244 28.1959 23.3352 28.1061 23.8271 28.067C24.6708 27.9998 26.6635 28.7373 27.4376 29.0749C28.8103 29.6735 30.7938 30.7778 30.6603 32.5374C30.5371 34.1608 29.9138 35.2186 28.8951 36.4269C28.316 37.1137 27.7288 37.7244 27.6131 38.6594C27.4483 39.9917 26.8683 42.0918 25.3226 42.3983C24.3544 42.5904 23.5963 41.978 23.1342 41.1872C22.6292 40.3229 22.3567 39.1545 22.1824 38.1772C21.9791 37.0373 21.7929 36.0075 20.7957 35.331C20.2505 34.9612 19.8642 34.6322 19.5584 34.0268C19.1427 33.2038 19.0667 32.1461 19.0566 31.2391C19.0471 30.3885 18.8483 30.3597 18.3266 29.8279C17.6149 29.2935 16.8806 28.9947 16.1157 28.3379C14.9924 27.3736 14.1555 26.197 13.5503 24.8798C13.1222 26.2333 12.8906 27.6742 12.8906 29.1692C12.8906 37.0163 19.252 43.3777 27.0991 43.3777C29.8399 43.3777 32.3994 42.6014 34.5699 41.2569L33.2715 40.5073C32.6681 40.1589 32.3066 39.5328 32.3066 38.8361V31.594C30.6088 31.1557 29.3159 29.2668 29.9217 27.5432C30.0836 27.0824 30.3318 26.6874 30.5909 26.2789C30.6547 26.1784 30.8136 25.9379 30.8774 25.7877C30.6654 25.1371 31.0296 24.4687 31.4637 23.9926C31.7133 23.7188 32.0239 23.4827 32.3661 23.3454C31.6188 22.2658 31.8194 19.9674 32.7911 19.079C33.3311 18.5853 34.0321 18.2653 34.7138 18.0156C34.9775 17.9189 35.244 17.8319 35.5101 17.7421L35.5331 17.7344C33.1741 15.9919 30.2571 14.9609 27.0991 14.9609ZM32.0114 25.4324C32.6227 26.7484 29.11 28.2637 32.2845 30.3451C32.3267 30.3606 32.3689 30.3747 32.411 30.3883C32.559 29.9562 32.8586 29.5878 33.2714 29.3494L40.04 25.4416C40.2627 25.313 40.5018 25.2319 40.7451 25.1983C39.9928 22.6088 38.5235 20.3244 36.5663 18.5744C36.2451 18.8625 34.4739 19.1497 33.5923 19.9556C32.8269 20.6554 33.1665 22.2336 33.3366 22.6596C33.5081 22.9956 36.4902 22.5778 36.8576 22.5922C38.577 22.6596 37.7836 24.566 37.283 24.7033C36.8827 24.813 34.1585 24.7678 33.0919 24.4216C32.6269 24.2706 31.9153 25.2255 32.0114 25.4324Z" fill="#F6F6F6"/>
</svg>
